<svg width="616" height="36" viewBox="0 0 616 36" fill="none" xmlns="http://www.w3.org/2000/svg">
<path d="M21.64 34.9999L19.912 27.8479H10.216L8.53598 34.9999H0.375977L10.408 1.73592H19.96L29.992 34.9999H21.64ZM11.56 22.1359H18.568L15.064 7.44792L11.56 22.1359Z" fill="black"/>
<path d="M40.3045 1.73592V28.7599H53.2645L52.4485 34.9999H32.4325V1.73592H40.3045Z" fill="black"/>
<path d="M77.4418 1.73592L76.6259 7.35192H64.9138V15.3199H75.1379V20.8399H64.9138V29.3359H77.4418V34.9999H57.0419V1.73592H77.4418Z" fill="black"/>
<path d="M92.5427 0.919922C95.0387 0.919922 97.1987 1.27192 99.0227 1.97592C100.879 2.67992 102.559 3.75192 104.063 5.19192L100.415 9.46392C98.1427 7.60792 95.7107 6.67992 93.1187 6.67992C91.7427 6.67992 90.6547 6.96792 89.8547 7.54392C89.0547 8.08792 88.6547 8.88792 88.6547 9.94392C88.6547 10.6799 88.8307 11.2879 89.1827 11.7679C89.5347 12.2159 90.1587 12.6479 91.0547 13.0639C91.9507 13.4799 93.2947 13.9759 95.0867 14.5519C98.4787 15.6399 100.975 16.9839 102.575 18.5839C104.175 20.1519 104.975 22.3919 104.975 25.3039C104.975 27.3839 104.447 29.2239 103.391 30.8239C102.335 32.3919 100.815 33.6239 98.8307 34.5199C96.8467 35.3839 94.4947 35.8159 91.7747 35.8159C89.0547 35.8159 86.6387 35.3839 84.5267 34.5199C82.4467 33.6559 80.6547 32.5039 79.1507 31.0639L83.1347 26.6959C84.4147 27.7839 85.7267 28.5999 87.0707 29.1439C88.4467 29.6879 89.9347 29.9599 91.5347 29.9599C93.1667 29.9599 94.4467 29.6079 95.3747 28.9039C96.3347 28.1679 96.8147 27.1599 96.8147 25.8799C96.8147 25.0479 96.6387 24.3599 96.2867 23.8159C95.9347 23.2399 95.3267 22.7279 94.4627 22.2799C93.5987 21.8319 92.3507 21.3519 90.7187 20.8399C87.0387 19.7199 84.4147 18.3439 82.8467 16.7119C81.3107 15.0799 80.5427 13.0159 80.5427 10.5199C80.5427 8.59992 81.0547 6.91992 82.0787 5.47992C83.1027 4.00792 84.5267 2.88792 86.3507 2.11992C88.1747 1.31992 90.2387 0.919922 92.5427 0.919922Z" fill="black"/>
<path d="M119.496 0.919922C121.992 0.919922 124.152 1.27192 125.976 1.97592C127.832 2.67992 129.512 3.75192 131.016 5.19192L127.368 9.46392C125.096 7.60792 122.664 6.67992 120.072 6.67992C118.696 6.67992 117.608 6.96792 116.808 7.54392C116.008 8.08792 115.608 8.88792 115.608 9.94392C115.608 10.6799 115.784 11.2879 116.136 11.7679C116.488 12.2159 117.112 12.6479 118.008 13.0639C118.904 13.4799 120.248 13.9759 122.04 14.5519C125.432 15.6399 127.928 16.9839 129.528 18.5839C131.128 20.1519 131.928 22.3919 131.928 25.3039C131.928 27.3839 131.4 29.2239 130.344 30.8239C129.288 32.3919 127.768 33.6239 125.784 34.5199C123.8 35.3839 121.448 35.8159 118.728 35.8159C116.008 35.8159 113.592 35.3839 111.48 34.5199C109.4 33.6559 107.608 32.5039 106.104 31.0639L110.088 26.6959C111.368 27.7839 112.68 28.5999 114.024 29.1439C115.4 29.6879 116.888 29.9599 118.488 29.9599C120.12 29.9599 121.4 29.6079 122.328 28.9039C123.288 28.1679 123.768 27.1599 123.768 25.8799C123.768 25.0479 123.592 24.3599 123.24 23.8159C122.888 23.2399 122.28 22.7279 121.416 22.2799C120.552 21.8319 119.304 21.3519 117.672 20.8399C113.992 19.7199 111.368 18.3439 109.8 16.7119C108.264 15.0799 107.496 13.0159 107.496 10.5199C107.496 8.59992 108.008 6.91992 109.032 5.47992C110.056 4.00792 111.48 2.88792 113.304 2.11992C115.128 1.31992 117.192 0.919922 119.496 0.919922Z" fill="black"/>
<path d="M153.546 34.9999L151.818 27.8479H142.122L140.442 34.9999H132.282L142.314 1.73592H151.866L161.898 34.9999H153.546ZM143.466 22.1359H150.474L146.97 7.44792L143.466 22.1359Z" fill="black"/>
<path d="M189.971 34.9999H179.939L170.339 9.22392C170.659 11.7519 170.899 13.9919 171.059 15.9439C171.251 17.8639 171.347 20.1519 171.347 22.8079V34.9999H164.339V1.73592H174.131L183.971 27.5599C183.267 23.1759 182.915 19.0479 182.915 15.1759V1.73592H189.971V34.9999Z" fill="black"/>
<path d="M205.431 1.73592C210.647 1.73592 214.823 2.91992 217.959 5.28792C221.127 7.62392 222.711 11.9279 222.711 18.1999C222.711 24.3759 221.175 28.7279 218.103 31.2559C215.031 33.7519 211.047 34.9999 206.151 34.9999H196.167V1.73592H205.431ZM204.039 7.44792V29.2879H206.631C209.223 29.2879 211.191 28.4879 212.535 26.8879C213.879 25.2559 214.551 22.3599 214.551 18.1999C214.551 15.3519 214.215 13.1439 213.543 11.5759C212.871 10.0079 211.959 8.93592 210.807 8.35992C209.655 7.75192 208.231 7.44792 206.535 7.44792H204.039Z" fill="black"/>
<path d="M238.376 22.2799H235.304V34.9999H227.432V1.73592H238.328C242.872 1.73592 246.28 2.56792 248.552 4.23192C250.856 5.89592 252.008 8.43992 252.008 11.8639C252.008 14.0079 251.496 15.7999 250.472 17.2399C249.448 18.6479 247.832 19.8479 245.624 20.8399L254.072 34.9999H245.192L238.376 22.2799ZM235.304 16.8559H238.616C240.376 16.8559 241.688 16.4559 242.552 15.6559C243.448 14.8559 243.896 13.5919 243.896 11.8639C243.896 10.2639 243.416 9.09592 242.456 8.35992C241.528 7.62392 240.088 7.25592 238.136 7.25592H235.304V16.8559Z" fill="black"/>
<path d="M269.888 0.919922C274.624 0.919922 278.304 2.43992 280.928 5.47992C283.584 8.51992 284.912 12.8079 284.912 18.3439C284.912 21.9599 284.304 25.0799 283.088 27.7039C281.904 30.3279 280.176 32.3439 277.904 33.7519C275.664 35.1279 272.992 35.8159 269.888 35.8159C266.784 35.8159 264.112 35.1279 261.872 33.7519C259.632 32.3759 257.904 30.3919 256.688 27.7999C255.504 25.1759 254.912 22.0239 254.912 18.3439C254.912 14.7599 255.504 11.6559 256.688 9.03192C257.904 6.40792 259.632 4.40792 261.872 3.03192C264.112 1.62392 266.784 0.919922 269.888 0.919922ZM269.888 6.67992C267.616 6.67992 265.92 7.60792 264.8 9.46392C263.712 11.2879 263.168 14.2479 263.168 18.3439C263.168 22.4399 263.728 25.4159 264.848 27.2719C265.968 29.1279 267.648 30.0559 269.888 30.0559C272.192 30.0559 273.888 29.1439 274.976 27.3199C276.096 25.4639 276.656 22.4719 276.656 18.3439C276.656 14.2159 276.096 11.2399 274.976 9.41592C273.856 7.59192 272.16 6.67992 269.888 6.67992Z" fill="black"/>
<path d="M318.546 34.9999L316.818 27.8479H307.122L305.442 34.9999H297.282L307.314 1.73592H316.866L326.898 34.9999H318.546ZM308.466 22.1359H315.474L311.97 7.44792L308.466 22.1359Z" fill="black"/>
<path d="M337.211 1.73592V28.7599H350.171L349.355 34.9999H329.339V1.73592H337.211Z" fill="black"/>
<path d="M374.454 1.73592L365.19 34.9999H355.398L345.798 1.73592H354.102L360.438 28.8559L366.39 1.73592H374.454Z" fill="black"/>
<path d="M397.317 1.73592L396.501 7.35192H384.789V15.3199H395.013V20.8399H384.789V29.3359H397.317V34.9999H376.917V1.73592H397.317Z" fill="black"/>
<path d="M412.418 0.919922C414.914 0.919922 417.074 1.27192 418.898 1.97592C420.754 2.67992 422.434 3.75192 423.938 5.19192L420.29 9.46392C418.018 7.60792 415.586 6.67992 412.994 6.67992C411.618 6.67992 410.53 6.96792 409.73 7.54392C408.93 8.08792 408.53 8.88792 408.53 9.94392C408.53 10.6799 408.706 11.2879 409.058 11.7679C409.41 12.2159 410.034 12.6479 410.93 13.0639C411.826 13.4799 413.17 13.9759 414.962 14.5519C418.354 15.6399 420.85 16.9839 422.45 18.5839C424.05 20.1519 424.85 22.3919 424.85 25.3039C424.85 27.3839 424.322 29.2239 423.266 30.8239C422.21 32.3919 420.69 33.6239 418.706 34.5199C416.722 35.3839 414.37 35.8159 411.65 35.8159C408.93 35.8159 406.514 35.3839 404.402 34.5199C402.322 33.6559 400.53 32.5039 399.026 31.0639L403.01 26.6959C404.29 27.7839 405.602 28.5999 406.946 29.1439C408.322 29.6879 409.81 29.9599 411.41 29.9599C413.042 29.9599 414.322 29.6079 415.25 28.9039C416.21 28.1679 416.69 27.1599 416.69 25.8799C416.69 25.0479 416.514 24.3599 416.162 23.8159C415.81 23.2399 415.202 22.7279 414.338 22.2799C413.474 21.8319 412.226 21.3519 410.594 20.8399C406.914 19.7199 404.29 18.3439 402.722 16.7119C401.186 15.0799 400.418 13.0159 400.418 10.5199C400.418 8.59992 400.93 6.91992 401.954 5.47992C402.978 4.00792 404.402 2.88792 406.226 2.11992C408.05 1.31992 410.114 0.919922 412.418 0.919922Z" fill="black"/>
<path d="M454.157 0.919922C456.237 0.919922 458.077 1.22392 459.677 1.83192C461.309 2.43992 462.845 3.35192 464.285 4.56792L460.541 9.03192C459.549 8.26392 458.573 7.68792 457.613 7.30392C456.653 6.91992 455.629 6.72792 454.541 6.72792C452.301 6.72792 450.525 7.67192 449.213 9.55992C447.933 11.4479 447.293 14.3599 447.293 18.2959C447.293 22.1679 447.933 25.0479 449.213 26.9359C450.525 28.7919 452.333 29.7199 454.637 29.7199C455.853 29.7199 456.957 29.4959 457.949 29.0479C458.941 28.5679 460.013 27.8959 461.165 27.0319L464.669 31.5439C463.421 32.7919 461.901 33.8159 460.109 34.6159C458.349 35.4159 456.397 35.8159 454.253 35.8159C451.181 35.8159 448.509 35.1439 446.237 33.7999C443.965 32.4559 442.189 30.4719 440.909 27.8479C439.661 25.1919 439.037 22.0079 439.037 18.2959C439.037 14.6799 439.677 11.5599 440.957 8.93592C442.269 6.31192 444.061 4.32792 446.333 2.98392C448.637 1.60792 451.245 0.919922 454.157 0.919922Z" fill="black"/>
<path d="M479.126 22.2799H476.054V34.9999H468.182V1.73592H479.078C483.622 1.73592 487.03 2.56792 489.302 4.23192C491.606 5.89592 492.758 8.43992 492.758 11.8639C492.758 14.0079 492.246 15.7999 491.222 17.2399C490.198 18.6479 488.582 19.8479 486.374 20.8399L494.822 34.9999H485.942L479.126 22.2799ZM476.054 16.8559H479.366C481.126 16.8559 482.438 16.4559 483.302 15.6559C484.198 14.8559 484.646 13.5919 484.646 11.8639C484.646 10.2639 484.166 9.09592 483.206 8.35992C482.278 7.62392 480.838 7.25592 478.886 7.25592H476.054V16.8559Z" fill="black"/>
<path d="M505.679 1.73592V34.9999H497.807V1.73592H505.679Z" fill="black"/>
<path d="M522.574 0.919922C525.07 0.919922 527.23 1.27192 529.054 1.97592C530.91 2.67992 532.59 3.75192 534.094 5.19192L530.446 9.46392C528.174 7.60792 525.742 6.67992 523.15 6.67992C521.774 6.67992 520.686 6.96792 519.886 7.54392C519.086 8.08792 518.686 8.88792 518.686 9.94392C518.686 10.6799 518.862 11.2879 519.214 11.7679C519.566 12.2159 520.19 12.6479 521.086 13.0639C521.982 13.4799 523.326 13.9759 525.118 14.5519C528.51 15.6399 531.006 16.9839 532.606 18.5839C534.206 20.1519 535.006 22.3919 535.006 25.3039C535.006 27.3839 534.478 29.2239 533.422 30.8239C532.366 32.3919 530.846 33.6239 528.862 34.5199C526.878 35.3839 524.526 35.8159 521.806 35.8159C519.086 35.8159 516.67 35.3839 514.558 34.5199C512.478 33.6559 510.686 32.5039 509.182 31.0639L513.166 26.6959C514.446 27.7839 515.758 28.5999 517.102 29.1439C518.478 29.6879 519.966 29.9599 521.566 29.9599C523.198 29.9599 524.478 29.6079 525.406 28.9039C526.366 28.1679 526.846 27.1599 526.846 25.8799C526.846 25.0479 526.67 24.3599 526.318 23.8159C525.966 23.2399 525.358 22.7279 524.494 22.2799C523.63 21.8319 522.382 21.3519 520.75 20.8399C517.07 19.7199 514.446 18.3439 512.878 16.7119C511.342 15.0799 510.574 13.0159 510.574 10.5199C510.574 8.59992 511.086 6.91992 512.11 5.47992C513.134 4.00792 514.558 2.88792 516.382 2.11992C518.206 1.31992 520.27 0.919922 522.574 0.919922Z" fill="black"/>
<path d="M550.091 1.73592C554.475 1.73592 557.883 2.64792 560.315 4.47192C562.747 6.29592 563.963 8.99992 563.963 12.5839C563.963 16.3279 562.763 19.1599 560.363 21.0799C557.995 22.9679 554.811 23.9119 550.811 23.9119H547.211V34.9999H539.339V1.73592H550.091ZM550.139 18.2479C551.995 18.2479 553.403 17.8159 554.363 16.9519C555.355 16.0559 555.851 14.5999 555.851 12.5839C555.851 9.09592 553.899 7.35192 549.995 7.35192H547.211V18.2479H550.139Z" fill="black"/>
<path d="M575.992 1.73592V34.9999H568.12V1.73592H575.992Z" fill="black"/>
<path d="M615.206 34.9999H607.478L606.902 21.9919C606.742 18.8879 606.662 16.1199 606.662 13.6879C606.662 11.8319 606.71 10.0719 606.806 8.40792L601.67 31.4959H594.23L588.758 8.40792C588.95 11.1919 589.046 13.8159 589.046 16.2799C589.046 18.1359 588.998 20.0719 588.902 22.0879L588.326 34.9999H580.646L583.142 1.73592H593.078L598.07 24.2959L602.727 1.73592H612.71L615.206 34.9999Z" fill="black"/>
</svg>
