<svg width="285" height="36" viewBox="0 0 285 36" fill="none" xmlns="http://www.w3.org/2000/svg">
<path d="M21.64 34.9999L19.912 27.8479H10.216L8.53598 34.9999H0.375977L10.408 1.73592H19.96L29.992 34.9999H21.64ZM11.56 22.1359H18.568L15.064 7.44792L11.56 22.1359Z" fill="black"/>
<path d="M40.3045 1.73592V28.7599H53.2645L52.4485 34.9999H32.4325V1.73592H40.3045Z" fill="black"/>
<path d="M77.4418 1.73592L76.6259 7.35192H64.9138V15.3199H75.1379V20.8399H64.9138V29.3359H77.4418V34.9999H57.0419V1.73592H77.4418Z" fill="black"/>
<path d="M92.5427 0.919922C95.0387 0.919922 97.1987 1.27192 99.0227 1.97592C100.879 2.67992 102.559 3.75192 104.063 5.19192L100.415 9.46392C98.1427 7.60792 95.7107 6.67992 93.1187 6.67992C91.7427 6.67992 90.6547 6.96792 89.8547 7.54392C89.0547 8.08792 88.6547 8.88792 88.6547 9.94392C88.6547 10.6799 88.8307 11.2879 89.1827 11.7679C89.5347 12.2159 90.1587 12.6479 91.0547 13.0639C91.9507 13.4799 93.2947 13.9759 95.0867 14.5519C98.4787 15.6399 100.975 16.9839 102.575 18.5839C104.175 20.1519 104.975 22.3919 104.975 25.3039C104.975 27.3839 104.447 29.2239 103.391 30.8239C102.335 32.3919 100.815 33.6239 98.8307 34.5199C96.8467 35.3839 94.4947 35.8159 91.7747 35.8159C89.0547 35.8159 86.6387 35.3839 84.5267 34.5199C82.4467 33.6559 80.6547 32.5039 79.1507 31.0639L83.1347 26.6959C84.4147 27.7839 85.7267 28.5999 87.0707 29.1439C88.4467 29.6879 89.9347 29.9599 91.5347 29.9599C93.1667 29.9599 94.4467 29.6079 95.3747 28.9039C96.3347 28.1679 96.8147 27.1599 96.8147 25.8799C96.8147 25.0479 96.6387 24.3599 96.2867 23.8159C95.9347 23.2399 95.3267 22.7279 94.4627 22.2799C93.5987 21.8319 92.3507 21.3519 90.7187 20.8399C87.0387 19.7199 84.4147 18.3439 82.8467 16.7119C81.3107 15.0799 80.5427 13.0159 80.5427 10.5199C80.5427 8.59992 81.0547 6.91992 82.0787 5.47992C83.1027 4.00792 84.5267 2.88792 86.3507 2.11992C88.1747 1.31992 90.2387 0.919922 92.5427 0.919922Z" fill="black"/>
<path d="M119.496 0.919922C121.992 0.919922 124.152 1.27192 125.976 1.97592C127.832 2.67992 129.512 3.75192 131.016 5.19192L127.368 9.46392C125.096 7.60792 122.664 6.67992 120.072 6.67992C118.696 6.67992 117.608 6.96792 116.808 7.54392C116.008 8.08792 115.608 8.88792 115.608 9.94392C115.608 10.6799 115.784 11.2879 116.136 11.7679C116.488 12.2159 117.112 12.6479 118.008 13.0639C118.904 13.4799 120.248 13.9759 122.04 14.5519C125.432 15.6399 127.928 16.9839 129.528 18.5839C131.128 20.1519 131.928 22.3919 131.928 25.3039C131.928 27.3839 131.4 29.2239 130.344 30.8239C129.288 32.3919 127.768 33.6239 125.784 34.5199C123.8 35.3839 121.448 35.8159 118.728 35.8159C116.008 35.8159 113.592 35.3839 111.48 34.5199C109.4 33.6559 107.608 32.5039 106.104 31.0639L110.088 26.6959C111.368 27.7839 112.68 28.5999 114.024 29.1439C115.4 29.6879 116.888 29.9599 118.488 29.9599C120.12 29.9599 121.4 29.6079 122.328 28.9039C123.288 28.1679 123.768 27.1599 123.768 25.8799C123.768 25.0479 123.592 24.3599 123.24 23.8159C122.888 23.2399 122.28 22.7279 121.416 22.2799C120.552 21.8319 119.304 21.3519 117.672 20.8399C113.992 19.7199 111.368 18.3439 109.8 16.7119C108.264 15.0799 107.496 13.0159 107.496 10.5199C107.496 8.59992 108.008 6.91992 109.032 5.47992C110.056 4.00792 111.48 2.88792 113.304 2.11992C115.128 1.31992 117.192 0.919922 119.496 0.919922Z" fill="black"/>
<path d="M153.546 34.9999L151.818 27.8479H142.122L140.442 34.9999H132.282L142.314 1.73592H151.866L161.898 34.9999H153.546ZM143.466 22.1359H150.474L146.97 7.44792L143.466 22.1359Z" fill="black"/>
<path d="M189.971 34.9999H179.939L170.339 9.22392C170.659 11.7519 170.899 13.9919 171.059 15.9439C171.251 17.8639 171.347 20.1519 171.347 22.8079V34.9999H164.339V1.73592H174.131L183.971 27.5599C183.267 23.1759 182.915 19.0479 182.915 15.1759V1.73592H189.971V34.9999Z" fill="black"/>
<path d="M205.431 1.73592C210.647 1.73592 214.823 2.91992 217.959 5.28792C221.127 7.62392 222.711 11.9279 222.711 18.1999C222.711 24.3759 221.175 28.7279 218.103 31.2559C215.031 33.7519 211.047 34.9999 206.151 34.9999H196.167V1.73592H205.431ZM204.039 7.44792V29.2879H206.631C209.223 29.2879 211.191 28.4879 212.535 26.8879C213.879 25.2559 214.551 22.3599 214.551 18.1999C214.551 15.3519 214.215 13.1439 213.543 11.5759C212.871 10.0079 211.959 8.93592 210.807 8.35992C209.655 7.75192 208.231 7.44792 206.535 7.44792H204.039Z" fill="black"/>
<path d="M238.376 22.2799H235.304V34.9999H227.432V1.73592H238.328C242.872 1.73592 246.28 2.56792 248.552 4.23192C250.856 5.89592 252.008 8.43992 252.008 11.8639C252.008 14.0079 251.496 15.7999 250.472 17.2399C249.448 18.6479 247.832 19.8479 245.624 20.8399L254.072 34.9999H245.192L238.376 22.2799ZM235.304 16.8559H238.616C240.376 16.8559 241.688 16.4559 242.552 15.6559C243.448 14.8559 243.896 13.5919 243.896 11.8639C243.896 10.2639 243.416 9.09592 242.456 8.35992C241.528 7.62392 240.088 7.25592 238.136 7.25592H235.304V16.8559Z" fill="black"/>
<path d="M269.888 0.919922C274.624 0.919922 278.304 2.43992 280.928 5.47992C283.584 8.51992 284.912 12.8079 284.912 18.3439C284.912 21.9599 284.304 25.0799 283.088 27.7039C281.904 30.3279 280.176 32.3439 277.904 33.7519C275.664 35.1279 272.992 35.8159 269.888 35.8159C266.784 35.8159 264.112 35.1279 261.872 33.7519C259.632 32.3759 257.904 30.3919 256.688 27.7999C255.504 25.1759 254.912 22.0239 254.912 18.3439C254.912 14.7599 255.504 11.6559 256.688 9.03192C257.904 6.40792 259.632 4.40792 261.872 3.03192C264.112 1.62392 266.784 0.919922 269.888 0.919922ZM269.888 6.67992C267.616 6.67992 265.92 7.60792 264.8 9.46392C263.712 11.2879 263.168 14.2479 263.168 18.3439C263.168 22.4399 263.728 25.4159 264.848 27.2719C265.968 29.1279 267.648 30.0559 269.888 30.0559C272.192 30.0559 273.888 29.1439 274.976 27.3199C276.096 25.4639 276.656 22.4719 276.656 18.3439C276.656 14.2159 276.096 11.2399 274.976 9.41592C273.856 7.59192 272.16 6.67992 269.888 6.67992Z" fill="black"/>
</svg>
