<svg width="476" height="36" viewBox="0 0 476 36" fill="none" xmlns="http://www.w3.org/2000/svg">
<path d="M21.64 34.9999L19.912 27.8479H10.216L8.53598 34.9999H0.375977L10.408 1.73592H19.96L29.992 34.9999H21.64ZM11.56 22.1359H18.568L15.064 7.44792L11.56 22.1359Z" fill="black"/>
<path d="M40.3045 1.73592V28.7599H53.2645L52.4485 34.9999H32.4325V1.73592H40.3045Z" fill="black"/>
<path d="M77.4418 1.73592L76.6259 7.35192H64.9138V15.3199H75.1379V20.8399H64.9138V29.3359H77.4418V34.9999H57.0419V1.73592H77.4418Z" fill="black"/>
<path d="M92.5427 0.919922C95.0387 0.919922 97.1987 1.27192 99.0227 1.97592C100.879 2.67992 102.559 3.75192 104.063 5.19192L100.415 9.46392C98.1427 7.60792 95.7107 6.67992 93.1187 6.67992C91.7427 6.67992 90.6547 6.96792 89.8547 7.54392C89.0547 8.08792 88.6547 8.88792 88.6547 9.94392C88.6547 10.6799 88.8307 11.2879 89.1827 11.7679C89.5347 12.2159 90.1587 12.6479 91.0547 13.0639C91.9507 13.4799 93.2947 13.9759 95.0867 14.5519C98.4787 15.6399 100.975 16.9839 102.575 18.5839C104.175 20.1519 104.975 22.3919 104.975 25.3039C104.975 27.3839 104.447 29.2239 103.391 30.8239C102.335 32.3919 100.815 33.6239 98.8307 34.5199C96.8467 35.3839 94.4947 35.8159 91.7747 35.8159C89.0547 35.8159 86.6387 35.3839 84.5267 34.5199C82.4467 33.6559 80.6547 32.5039 79.1507 31.0639L83.1347 26.6959C84.4147 27.7839 85.7267 28.5999 87.0707 29.1439C88.4467 29.6879 89.9347 29.9599 91.5347 29.9599C93.1667 29.9599 94.4467 29.6079 95.3747 28.9039C96.3347 28.1679 96.8147 27.1599 96.8147 25.8799C96.8147 25.0479 96.6387 24.3599 96.2867 23.8159C95.9347 23.2399 95.3267 22.7279 94.4627 22.2799C93.5987 21.8319 92.3507 21.3519 90.7187 20.8399C87.0387 19.7199 84.4147 18.3439 82.8467 16.7119C81.3107 15.0799 80.5427 13.0159 80.5427 10.5199C80.5427 8.59992 81.0547 6.91992 82.0787 5.47992C83.1027 4.00792 84.5267 2.88792 86.3507 2.11992C88.1747 1.31992 90.2387 0.919922 92.5427 0.919922Z" fill="black"/>
<path d="M119.496 0.919922C121.992 0.919922 124.152 1.27192 125.976 1.97592C127.832 2.67992 129.512 3.75192 131.016 5.19192L127.368 9.46392C125.096 7.60792 122.664 6.67992 120.072 6.67992C118.696 6.67992 117.608 6.96792 116.808 7.54392C116.008 8.08792 115.608 8.88792 115.608 9.94392C115.608 10.6799 115.784 11.2879 116.136 11.7679C116.488 12.2159 117.112 12.6479 118.008 13.0639C118.904 13.4799 120.248 13.9759 122.04 14.5519C125.432 15.6399 127.928 16.9839 129.528 18.5839C131.128 20.1519 131.928 22.3919 131.928 25.3039C131.928 27.3839 131.4 29.2239 130.344 30.8239C129.288 32.3919 127.768 33.6239 125.784 34.5199C123.8 35.3839 121.448 35.8159 118.728 35.8159C116.008 35.8159 113.592 35.3839 111.48 34.5199C109.4 33.6559 107.608 32.5039 106.104 31.0639L110.088 26.6959C111.368 27.7839 112.68 28.5999 114.024 29.1439C115.4 29.6879 116.888 29.9599 118.488 29.9599C120.12 29.9599 121.4 29.6079 122.328 28.9039C123.288 28.1679 123.768 27.1599 123.768 25.8799C123.768 25.0479 123.592 24.3599 123.24 23.8159C122.888 23.2399 122.28 22.7279 121.416 22.2799C120.552 21.8319 119.304 21.3519 117.672 20.8399C113.992 19.7199 111.368 18.3439 109.8 16.7119C108.264 15.0799 107.496 13.0159 107.496 10.5199C107.496 8.59992 108.008 6.91992 109.032 5.47992C110.056 4.00792 111.48 2.88792 113.304 2.11992C115.128 1.31992 117.192 0.919922 119.496 0.919922Z" fill="black"/>
<path d="M153.546 34.9999L151.818 27.8479H142.122L140.442 34.9999H132.282L142.314 1.73592H151.866L161.898 34.9999H153.546ZM143.466 22.1359H150.474L146.97 7.44792L143.466 22.1359Z" fill="black"/>
<path d="M189.971 34.9999H179.939L170.339 9.22392C170.659 11.7519 170.899 13.9919 171.059 15.9439C171.251 17.8639 171.347 20.1519 171.347 22.8079V34.9999H164.339V1.73592H174.131L183.971 27.5599C183.267 23.1759 182.915 19.0479 182.915 15.1759V1.73592H189.971V34.9999Z" fill="black"/>
<path d="M205.431 1.73592C210.647 1.73592 214.823 2.91992 217.959 5.28792C221.127 7.62392 222.711 11.9279 222.711 18.1999C222.711 24.3759 221.175 28.7279 218.103 31.2559C215.031 33.7519 211.047 34.9999 206.151 34.9999H196.167V1.73592H205.431ZM204.039 7.44792V29.2879H206.631C209.223 29.2879 211.191 28.4879 212.535 26.8879C213.879 25.2559 214.551 22.3599 214.551 18.1999C214.551 15.3519 214.215 13.1439 213.543 11.5759C212.871 10.0079 211.959 8.93592 210.807 8.35992C209.655 7.75192 208.231 7.44792 206.535 7.44792H204.039Z" fill="black"/>
<path d="M238.376 22.2799H235.304V34.9999H227.432V1.73592H238.328C242.872 1.73592 246.28 2.56792 248.552 4.23192C250.856 5.89592 252.008 8.43992 252.008 11.8639C252.008 14.0079 251.496 15.7999 250.472 17.2399C249.448 18.6479 247.832 19.8479 245.624 20.8399L254.072 34.9999H245.192L238.376 22.2799ZM235.304 16.8559H238.616C240.376 16.8559 241.688 16.4559 242.552 15.6559C243.448 14.8559 243.896 13.5919 243.896 11.8639C243.896 10.2639 243.416 9.09592 242.456 8.35992C241.528 7.62392 240.088 7.25592 238.136 7.25592H235.304V16.8559Z" fill="black"/>
<path d="M269.888 0.919922C274.624 0.919922 278.304 2.43992 280.928 5.47992C283.584 8.51992 284.912 12.8079 284.912 18.3439C284.912 21.9599 284.304 25.0799 283.088 27.7039C281.904 30.3279 280.176 32.3439 277.904 33.7519C275.664 35.1279 272.992 35.8159 269.888 35.8159C266.784 35.8159 264.112 35.1279 261.872 33.7519C259.632 32.3759 257.904 30.3919 256.688 27.7999C255.504 25.1759 254.912 22.0239 254.912 18.3439C254.912 14.7599 255.504 11.6559 256.688 9.03192C257.904 6.40792 259.632 4.40792 261.872 3.03192C264.112 1.62392 266.784 0.919922 269.888 0.919922ZM269.888 6.67992C267.616 6.67992 265.92 7.60792 264.8 9.46392C263.712 11.2879 263.168 14.2479 263.168 18.3439C263.168 22.4399 263.728 25.4159 264.848 27.2719C265.968 29.1279 267.648 30.0559 269.888 30.0559C272.192 30.0559 273.888 29.1439 274.976 27.3199C276.096 25.4639 276.656 22.4719 276.656 18.3439C276.656 14.2159 276.096 11.2399 274.976 9.41592C273.856 7.59192 272.16 6.67992 269.888 6.67992Z" fill="black"/>
<path d="M314.61 0.919922C316.69 0.919922 318.53 1.22392 320.13 1.83192C321.762 2.43992 323.298 3.35192 324.738 4.56792L320.994 9.03192C320.002 8.26392 319.026 7.68792 318.066 7.30392C317.106 6.91992 316.082 6.72792 314.994 6.72792C312.754 6.72792 310.978 7.67192 309.666 9.55992C308.386 11.4479 307.746 14.3599 307.746 18.2959C307.746 22.1679 308.386 25.0479 309.666 26.9359C310.978 28.7919 312.786 29.7199 315.09 29.7199C316.306 29.7199 317.41 29.4959 318.402 29.0479C319.394 28.5679 320.466 27.8959 321.618 27.0319L325.122 31.5439C323.874 32.7919 322.354 33.8159 320.562 34.6159C318.802 35.4159 316.85 35.8159 314.706 35.8159C311.634 35.8159 308.962 35.1439 306.69 33.7999C304.418 32.4559 302.642 30.4719 301.362 27.8479C300.114 25.1919 299.49 22.0079 299.49 18.2959C299.49 14.6799 300.13 11.5599 301.41 8.93592C302.722 6.31192 304.514 4.32792 306.786 2.98392C309.09 1.60792 311.698 0.919922 314.61 0.919922Z" fill="black"/>
<path d="M339.58 22.2799H336.508V34.9999H328.636V1.73592H339.532C344.076 1.73592 347.484 2.56792 349.756 4.23192C352.06 5.89592 353.212 8.43992 353.212 11.8639C353.212 14.0079 352.7 15.7999 351.676 17.2399C350.652 18.6479 349.036 19.8479 346.828 20.8399L355.276 34.9999H346.396L339.58 22.2799ZM336.508 16.8559H339.82C341.58 16.8559 342.892 16.4559 343.756 15.6559C344.652 14.8559 345.1 13.5919 345.1 11.8639C345.1 10.2639 344.62 9.09592 343.66 8.35992C342.732 7.62392 341.292 7.25592 339.34 7.25592H336.508V16.8559Z" fill="black"/>
<path d="M366.133 1.73592V34.9999H358.261V1.73592H366.133Z" fill="black"/>
<path d="M383.027 0.919922C385.523 0.919922 387.683 1.27192 389.507 1.97592C391.363 2.67992 393.043 3.75192 394.547 5.19192L390.899 9.46392C388.627 7.60792 386.195 6.67992 383.603 6.67992C382.227 6.67992 381.139 6.96792 380.339 7.54392C379.539 8.08792 379.139 8.88792 379.139 9.94392C379.139 10.6799 379.315 11.2879 379.667 11.7679C380.019 12.2159 380.643 12.6479 381.539 13.0639C382.435 13.4799 383.779 13.9759 385.571 14.5519C388.963 15.6399 391.459 16.9839 393.059 18.5839C394.659 20.1519 395.459 22.3919 395.459 25.3039C395.459 27.3839 394.931 29.2239 393.875 30.8239C392.819 32.3919 391.299 33.6239 389.315 34.5199C387.331 35.3839 384.979 35.8159 382.259 35.8159C379.539 35.8159 377.123 35.3839 375.011 34.5199C372.931 33.6559 371.139 32.5039 369.635 31.0639L373.619 26.6959C374.899 27.7839 376.211 28.5999 377.555 29.1439C378.931 29.6879 380.419 29.9599 382.019 29.9599C383.651 29.9599 384.931 29.6079 385.859 28.9039C386.819 28.1679 387.299 27.1599 387.299 25.8799C387.299 25.0479 387.123 24.3599 386.771 23.8159C386.419 23.2399 385.811 22.7279 384.947 22.2799C384.083 21.8319 382.835 21.3519 381.203 20.8399C377.523 19.7199 374.899 18.3439 373.331 16.7119C371.795 15.0799 371.027 13.0159 371.027 10.5199C371.027 8.59992 371.539 6.91992 372.563 5.47992C373.587 4.00792 375.011 2.88792 376.835 2.11992C378.659 1.31992 380.723 0.919922 383.027 0.919922Z" fill="black"/>
<path d="M410.544 1.73592C414.928 1.73592 418.336 2.64792 420.768 4.47192C423.2 6.29592 424.416 8.99992 424.416 12.5839C424.416 16.3279 423.216 19.1599 420.816 21.0799C418.448 22.9679 415.264 23.9119 411.264 23.9119H407.664V34.9999H399.792V1.73592H410.544ZM410.592 18.2479C412.448 18.2479 413.856 17.8159 414.816 16.9519C415.808 16.0559 416.304 14.5999 416.304 12.5839C416.304 9.09592 414.352 7.35192 410.448 7.35192H407.664V18.2479H410.592Z" fill="black"/>
<path d="M436.445 1.73592V34.9999H428.573V1.73592H436.445Z" fill="black"/>
<path d="M475.66 34.9999H467.932L467.356 21.9919C467.196 18.8879 467.116 16.1199 467.116 13.6879C467.116 11.8319 467.164 10.0719 467.26 8.40792L462.124 31.4959H454.684L449.212 8.40792C449.404 11.1919 449.5 13.8159 449.5 16.2799C449.5 18.1359 449.452 20.0719 449.356 22.0879L448.78 34.9999H441.1L443.596 1.73592H453.532L458.524 24.2959L463.18 1.73592H473.164L475.66 34.9999Z" fill="black"/>
</svg>
